PathFileType	4	(X/Y/Z)	E:\Marcel_BSc\Marcel\30_01_2025\static_00.trc
DataRate	CameraRate	NumFrames	NumMarkers	Units	OrigDataRate	OrigDataStartFrame	OrigNumFrames
200.0	200.0	6	59	mm	200.0	80	158	
Frame#	Time	FHD			LBHD			RBHD			RBAR			LBAR			RASI			RSACR			LSACR			LASI			USACR			C7			CLAV			T10			RSHO			LSHO			LTHI1			LTHI3			LTHI2			LLFC			LMFC			LTIB1			LTIB2			LTIB3			LMMAL			LLMAL			LHEE			LMT1			LMT5			LMT3			RTHI1			RTHI2			RTHI3			RLFC			RMFC			RTIB1			RTIB3			RTIB2			RLMAL			RMMAL			RHEE			RMT5			RMT1			RMT3			LMEP			LLEP			LDUPA			LMUPA			LUUPA			LUL			LRAD			LRFIN			RUL			RRAD			RUFIN			RMEP			RLEP			RMUPA			RDUPA			RUUPA			
		X1	Y1	Z1	X2	Y2	Z2	X3	Y3	Z3	X4	Y4	Z4	X5	Y5	Z5	X6	Y6	Z6	X7	Y7	Z7	X8	Y8	Z8	X9	Y9	Z9	X10	Y10	Z10	X11	Y11	Z11	X12	Y12	Z12	X13	Y13	Z13	X14	Y14	Z14	X15	Y15	Z15	X16	Y16	Z16	X17	Y17	Z17	X18	Y18	Z18	X19	Y19	Z19	X20	Y20	Z20	X21	Y21	Z21	X22	Y22	Z22	X23	Y23	Z23	X24	Y24	Z24	X25	Y25	Z25	X26	Y26	Z26	X27	Y27	Z27	X28	Y28	Z28	X29	Y29	Z29	X30	Y30	Z30	X31	Y31	Z31	X32	Y32	Z32	X33	Y33	Z33	X34	Y34	Z34	X35	Y35	Z35	X36	Y36	Z36	X37	Y37	Z37	X38	Y38	Z38	X39	Y39	Z39	X40	Y40	Z40	X41	Y41	Z41	X42	Y42	Z42	X43	Y43	Z43	X44	Y44	Z44	X45	Y45	Z45	X46	Y46	Z46	X47	Y47	Z47	X48	Y48	Z48	X49	Y49	Z49	X50	Y50	Z50	X51	Y51	Z51	X52	Y52	Z52	X53	Y53	Z53	X54	Y54	Z54	X55	Y55	Z55	X56	Y56	Z56	X57	Y57	Z57	X58	Y58	Z58	X59	Y59	Z59	
80	0.39	102.61074	1817.7484	-580.56488	135.02361	1803.2029	-522.18762	131.15152	1801.4349	-651.4082	1237.7542	37.496334	-1766.9839	1248.0896	32.387463	457.81525	101.02773	1048.2179	-723.88464	309.89294	1098.1418	-621.38684	305.7457	1095.2327	-557.48712	95.40358	1038.6503	-458.70486	301.54095	1112.0049	-589.33948	278.80365	1567.0427	-583.43365	116.44196	1531.4564	-584.7724	281.70514	1257.3854	-577.48596	239.84041	1605.1415	-734.18103	223.4875	1595.4912	-417.21918	228.55846	706.98236	-410.22241	258.09488	651.25726	-428.87961	211.10976	643.78528	-408.13467	221.57959	524.75854	-415.31659	174.69232	506.39426	-517.22314	222.3871	276.37878	-400.15756	269.57764	274.89383	-381.09119	242.91959	214.24405	-391.94409	268.07193	92.395592	-468.13815	287.09387	83.681763	-380.60968	343.99686	38.982773	-422.35388	115.27024	41.438515	-434.43063	145.16211	26.124357	-352.04297	122.68473	36.0797	-388.93973	207.65256	674.73663	-793.13623	254.93803	671.02325	-773.84009	226.2869	613.13983	-781.77527	203.21313	529.37329	-778.30139	179.52054	508.71082	-681.96143	259.9368	277.72592	-811.46515	291.50864	219.53914	-813.94006	240.73997	214.45505	-809.87421	292.80997	75.459526	-813.63849	245.16441	71.104836	-736.35272	339.76007	30.494043	-765.16577	173.11409	26.149734	-862.6507	109.43997	42.547462	-788.40765	134.09225	40.167404	-828.96234	160.83665	1469.9314	-114.50528	233.72401	1509.2224	-116.03494	259.6723	1523.627	-217.25743	226.92381	1561.3669	-219.2029	235.77591	1565.3354	-280.98682	170.57031	1563.2106	167.40259	141.24834	1628.1041	136.42088	167.4353	1657.2355	235.98753	216.23805	1591.1118	-1341.7279	195.3465	1658.1115	-1308.3624	226.25366	1680.7963	-1394.8599	178.34326	1484.2812	-1045.1798	247.73552	1539.3353	-1057.6129	246.57291	1577.2629	-910.30939	254.45667	1564.4724	-970.59113	281.3588	1542.2074	-898.85199
81	0.395	102.55653	1817.7421	-580.61597	134.97424	1803.1981	-522.22107	131.1167	1801.4249	-651.43103	1237.7599	37.495487	-1766.9788	1248.0369	32.276665	457.80054	101.04146	1048.2411	-723.82166	309.90051	1098.1658	-621.40759	305.79291	1095.228	-557.4964	95.431625	1038.6464	-458.70221	301.582	1112.0123	-589.33789	278.7933	1567.054	-583.43732	116.44739	1531.4574	-584.78619	281.74875	1257.4048	-577.47882	239.84651	1605.1458	-734.185	223.5058	1595.5081	-417.23523	228.59183	706.98975	-410.22064	258.11636	651.25952	-428.8804	211.13759	643.78723	-408.13593	221.6088	524.75958	-415.3074	174.72424	506.37888	-517.21552	222.42349	276.36951	-400.16837	269.58438	274.89886	-381.07803	242.92532	214.23381	-391.93637	268.11792	92.385796	-468.11798	287.09738	83.6772	-380.60583	343.97241	39.023151	-422.33618	115.27599	41.434769	-434.42627	145.16039	26.126926	-352.03845	122.6895	36.084476	-388.93948	207.82642	674.69104	-793.14716	254.96027	671.01514	-773.82336	226.31052	613.1413	-781.78784	203.23064	529.35712	-778.31696	179.51743	508.71222	-681.97375	259.93552	277.73221	-811.45453	291.57654	219.52853	-813.93451	240.76248	214.44185	-809.86829	292.82452	75.455688	-813.62036	245.15343	71.107155	-736.34845	339.89349	30.509464	-765.07104	173.11159	26.135303	-862.65558	109.4341	42.551563	-788.40271	134.10611	40.163242	-828.95892	160.86916	1469.9293	-114.51238	233.73808	1509.2157	-116.05585	259.69687	1523.6348	-217.26099	226.94156	1561.3655	-219.21066	235.79184	1565.3311	-281.00589	170.60147	1563.255	167.39479	141.25389	1628.1279	136.39731	167.43941	1657.2783	235.94092	216.24535	1591.0957	-1341.7488	195.33038	1658.0867	-1308.3805	226.21707	1680.7732	-1394.8656	178.29959	1484.2733	-1045.2148	247.75983	1539.3286	-1057.621	246.58154	1577.2693	-910.31641	254.47205	1564.4829	-970.59204	281.36508	1542.2064	-898.85223
82	0.4	102.51494	1817.71	-580.65063	134.94366	1803.1996	-522.2511	131.09138	1801.4115	-651.46021	1237.7603	37.50119	-1766.9838	1248.0002	32.424633	457.96844	101.07475	1048.2617	-723.86005	309.95273	1098.1559	-621.41003	305.82687	1095.248	-557.5014	95.478165	1038.6514	-458.70718	301.61404	1112.0112	-589.34338	278.80746	1567.0543	-583.46423	116.45702	1531.4556	-584.79327	281.76712	1257.4066	-577.48956	239.83879	1605.1469	-734.19495	223.54053	1595.5153	-417.25345	228.63225	706.99634	-410.2132	258.16669	651.26379	-428.88037	211.1736	643.79407	-408.12381	221.6183	524.75562	-415.3085	174.7596	506.35779	-517.19666	222.42308	276.37119	-400.14951	269.59921	274.90207	-381.07709	242.92979	214.24197	-391.92453	268.11313	92.375954	-468.11844	287.10077	83.678162	-380.5975	343.92136	38.986961	-422.38705	115.27503	41.437611	-434.42621	145.16122	26.129892	-352.03741	122.68765	36.081791	-388.94534	207.75967	674.78101	-793.16864	254.9487	671.01904	-773.82172	226.34045	613.11633	-781.79297	203.2462	529.35724	-778.30945	179.52194	508.71338	-681.98682	259.94891	277.72549	-811.46289	291.54535	219.52397	-813.9342	240.75847	214.43323	-809.88525	292.79813	75.463211	-813.64069	245.15704	71.106827	-736.35284	339.78848	30.461927	-765.16772	173.10777	26.142454	-862.65271	109.44405	42.536007	-788.41998	134.10149	40.164936	-828.9552	160.89093	1469.9323	-114.52289	233.76112	1509.2263	-116.06658	259.71265	1523.629	-217.2771	226.96599	1561.3707	-219.21925	235.94479	1565.4294	-281.26239	170.62527	1563.2841	167.38235	141.27272	1628.1531	136.37283	167.47195	1657.3114	235.90775	216.25035	1591.0756	-1341.7672	195.31926	1658.0684	-1308.3898	226.20889	1680.7559	-1394.8888	178.36195	1484.2498	-1045.1969	247.76448	1539.3466	-1057.6154	246.57773	1577.274	-910.31714	254.47308	1564.4779	-970.59717	281.36234	1542.2144	-898.85095
83	0.405	102.5065	1817.704	-580.6731	134.89738	1803.1997	-522.28363	131.07228	1801.4037	-651.487	1237.7555	37.497181	-1766.9835	1248.0056	32.452717	457.99252	101.11334	1048.2731	-723.86005	310.00067	1098.1768	-621.3783	305.84961	1095.2607	-557.5069	95.49482	1038.6581	-458.71655	301.65674	1112.0142	-589.3468	278.83038	1567.0704	-583.466	116.4775	1531.4563	-584.80261	281.79767	1257.418	-577.4837	239.81879	1605.1534	-734.20905	223.55138	1595.5319	-417.26941	228.67004	707.00446	-410.20703	258.19131	651.26788	-428.8783	211.20802	643.80164	-408.12354	221.6443	524.76276	-415.29974	174.7878	506.35004	-517.19342	222.42899	276.3714	-400.1702	269.60336	274.89774	-381.06793	242.92111	214.25441	-391.91556	268.095	92.384796	-468.13065	287.10349	83.675362	-380.59763	343.94193	38.994396	-422.35602	115.27609	41.438141	-434.42862	145.16306	26.130951	-352.03922	122.68453	36.081795	-388.95041	207.93034	674.73627	-793.16296	254.99332	671.01831	-773.79932	226.4368	613.11823	-781.72162	203.23543	529.37695	-778.33087	179.51549	508.71216	-682.00122	259.96103	277.73276	-811.46381	291.9501	219.9317	-814.56433	240.761	214.43489	-809.88348	292.80991	75.463181	-813.63312	245.15796	71.105225	-736.35114	339.88699	30.506725	-765.07495	173.1113	26.141541	-862.64832	109.43915	42.546318	-788.40546	134.09535	40.154217	-828.97382	160.90361	1469.9415	-114.53398	233.76064	1509.2156	-116.09522	259.73471	1523.6251	-217.28615	226.98416	1561.3693	-219.22975	235.97144	1565.4348	-281.29028	170.62759	1563.303	167.35599	141.29411	1628.1805	136.36092	167.49892	1657.3521	235.87003	216.24646	1591.0554	-1341.7788	195.31021	1658.0527	-1308.4095	226.21477	1680.7336	-1394.9149	178.37724	1484.2445	-1045.1908	247.77135	1539.3296	-1057.6439	246.58199	1577.2781	-910.32227	254.47765	1564.4728	-970.60339	281.3559	1542.2297	-898.85492
84	0.41	102.46996	1817.696	-580.69824	134.86353	1803.199	-522.30432	131.04639	1801.396	-651.52454	1237.7568	37.498833	-1766.9799	1248.0054	32.446198	457.99002	101.47364	1048.4749	-724.49921	310.04892	1098.1765	-621.37604	305.8826	1095.26	-557.49695	95.521805	1038.6614	-458.72034	301.68814	1112.02	-589.34772	278.83145	1567.0875	-583.48749	116.49809	1531.4592	-584.81396	281.8287	1257.4183	-577.49811	239.8143	1605.1653	-734.22668	223.57384	1595.5361	-417.2774	228.69736	706.9986	-410.21143	258.22269	651.27362	-428.87735	211.23512	643.80194	-408.11865	221.65839	524.75525	-415.29605	174.78722	506.35571	-517.18939	222.44411	276.35904	-400.15189	269.60403	274.89755	-381.064	243.07907	214.2476	-391.94873	268.12427	92.405212	-468.10611	287.10724	83.670982	-380.59079	343.94254	38.988647	-422.36426	115.28328	41.436409	-434.42603	145.16585	26.128099	-352.03488	122.69023	36.084194	-388.94525	208.1873	674.95551	-792.94684	254.97649	671.02655	-773.79108	226.35764	613.12061	-781.79095	203.27032	529.37128	-778.33044	179.5038	508.71802	-682.00574	259.97842	277.73944	-811.46393	291.56729	219.58118	-814.02118	240.76018	214.4503	-809.89258	292.80911	75.457458	-813.63184	245.15674	71.113411	-736.35126	339.89426	30.501448	-765.05841	173.10239	26.151094	-862.65515	109.428	42.550419	-788.41528	134.10521	40.162167	-828.9671	160.92383	1469.9529	-114.53795	233.77824	1509.2393	-116.0972	259.73624	1523.6244	-217.31018	226.99878	1561.371	-219.25302	235.84959	1565.3293	-281.0242	170.6633	1563.3203	167.3537	141.31239	1628.2021	136.34747	167.55687	1657.3623	235.85843	216.24977	1591.0378	-1341.7893	195.31909	1658.0304	-1308.4283	226.20453	1680.7191	-1394.9431	178.4068	1484.2186	-1045.2061	247.76114	1539.3212	-1057.6698	246.57175	1577.2798	-910.32886	254.46222	1564.4634	-970.62433	281.34924	1542.2305	-898.85907
85	0.415	102.42932	1817.6854	-580.74432	134.82262	1803.1991	-522.32898	131.02145	1801.3842	-651.547	1237.7567	37.492973	-1766.9724	1247.9944	32.439056	457.98514	101.56092	1048.4542	-724.54272	310.0813	1098.1813	-621.37512	305.91727	1095.2666	-557.5069	95.563072	1038.6616	-458.73294	301.72556	1112.0385	-589.34003	278.84625	1567.0813	-583.5058	116.51018	1531.4673	-584.83112	281.8689	1257.4303	-577.4967	239.80403	1605.1664	-734.24097	223.60315	1595.5421	-417.28284	228.72032	707.00269	-410.21597	258.25806	651.2738	-428.86676	211.25995	643.80341	-408.11337	221.67599	524.76166	-415.28369	174.78529	506.36041	-517.18768	222.43806	276.37012	-400.14789	269.60904	274.89233	-381.05081	242.93512	214.23781	-391.901	268.07111	92.41272	-468.1174	287.10779	83.670792	-380.58521	344.07538	39.055565	-422.21671	115.28261	41.43692	-434.4296	145.16035	26.129553	-352.03415	122.68188	36.082741	-388.94308	208.02901	674.71521	-793.13556	254.99553	671.00348	-773.81531	226.37367	613.14209	-781.79193	203.30099	529.35565	-778.32263	179.50868	508.71719	-682.02155	259.94952	277.74454	-811.47845	291.92502	219.92863	-814.53699	240.76207	214.43796	-809.89813	292.81073	75.456863	-813.63232	245.15776	71.111107	-736.35229	339.88785	30.508669	-765.06824	173.10959	26.147091	-862.65302	109.43027	42.546238	-788.42065	134.09567	40.167645	-828.96936	160.92528	1469.9744	-114.54931	233.78633	1509.251	-116.10985	259.7453	1523.6287	-217.31888	227.01367	1561.3802	-219.25594	236.02618	1565.4403	-281.28162	170.34444	1563.2848	167.1982	141.33131	1628.2322	136.34087	167.6046	1657.3809	235.8412	216.24921	1591.0164	-1341.8046	195.33011	1658.0123	-1308.4453	226.22023	1680.6827	-1394.9586	178.33221	1484.251	-1045.24	247.7776	1539.3058	-1057.6721	246.56949	1577.2795	-910.34949	254.46823	1564.4595	-970.62305	281.34488	1542.2372	-898.86029
